<svg width="54" height="54" viewBox="0 0 54 54" fill="none" xmlns="http://www.w3.org/2000/svg">
<path d="M10.2802 7.47225C10.2802 7.3156 10.3425 7.16538 10.4532 7.05461C10.564 6.94385 10.7142 6.88162 10.8709 6.88162H16.5206C16.6773 6.88162 16.8275 6.94385 16.9383 7.05461C17.049 7.16538 17.1112 7.3156 17.1112 7.47225V24.8586H10.2769L10.2802 7.47225Z" fill="url(#paint0_radial_3_2)"/>
<path d="M10.2802 7.47225C10.2802 7.3156 10.3425 7.16538 10.4532 7.05461C10.564 6.94385 10.7142 6.88162 10.8709 6.88162H16.5206C16.6773 6.88162 16.8275 6.94385 16.9383 7.05461C17.049 7.16538 17.1112 7.3156 17.1112 7.47225V24.8586H10.2769L10.2802 7.47225Z" fill="url(#paint1_linear_3_2)"/>
<path d="M10.2802 7.47225C10.2802 7.3156 10.3425 7.16538 10.4532 7.05461C10.564 6.94385 10.7142 6.88162 10.8709 6.88162H16.5206C16.6773 6.88162 16.8275 6.94385 16.9383 7.05461C17.049 7.16538 17.1112 7.3156 17.1112 7.47225V24.8586H10.2769L10.2802 7.47225Z" fill="url(#paint2_linear_3_2)"/>
<path d="M10.2802 7.47225C10.2802 7.3156 10.3425 7.16538 10.4532 7.05461C10.564 6.94385 10.7142 6.88162 10.8709 6.88162H16.5206C16.6773 6.88162 16.8275 6.94385 16.9383 7.05461C17.049 7.16538 17.1112 7.3156 17.1112 7.47225V24.8586H10.2769L10.2802 7.47225Z" fill="url(#paint3_linear_3_2)"/>
<path d="M10.2802 7.47225C10.2802 7.3156 10.3425 7.16538 10.4532 7.05461C10.564 6.94385 10.7142 6.88162 10.8709 6.88162H16.5206C16.6773 6.88162 16.8275 6.94385 16.9383 7.05461C17.049 7.16538 17.1112 7.3156 17.1112 7.47225V24.8586H10.2769L10.2802 7.47225Z" fill="url(#paint4_radial_3_2)"/>
<path d="M46.6695 49.2075H7.83169V26.5224L27.2498 8.37843L46.6695 26.5241V49.2075Z" fill="url(#paint5_linear_3_2)"/>
<path d="M46.6695 49.2075H7.83169V26.5224L27.2498 8.37843L46.6695 26.5241V49.2075Z" fill="url(#paint6_linear_3_2)"/>
<path d="M46.6695 49.2075H7.83169V26.5224L27.2498 8.37843L46.6695 26.5241V49.2075Z" fill="url(#paint7_radial_3_2)"/>
<path d="M46.6695 49.2075H7.83169V26.5224L27.2498 8.37843L46.6695 26.5241V49.2075Z" fill="url(#paint8_linear_3_2)"/>
<path d="M46.6695 49.2075H7.83169V26.5224L27.2498 8.37843L46.6695 26.5241V49.2075Z" fill="url(#paint9_radial_3_2)"/>
<path d="M46.6695 49.2075H7.83169V26.5224L27.2498 8.37843L46.6695 26.5241V49.2075Z" fill="url(#paint10_linear_3_2)"/>
<path d="M46.6695 49.2075H7.83169V26.5224L27.2498 8.37843L46.6695 26.5241V49.2075Z" fill="url(#paint11_linear_3_2)"/>
<g filter="url(#filter0_f_3_2)">
<path d="M25.4239 49.2075H13.7076V30.6298C13.7076 29.2157 14.607 28.053 15.6988 28.053H23.4326C24.5261 28.053 25.4239 29.2157 25.4239 30.6298V49.2075Z" fill="url(#paint12_linear_3_2)"/>
</g>
<g filter="url(#filter1_i_3_2)">
<path d="M39.9094 36.8955H32.8387C32.653 36.8957 32.469 36.8593 32.2973 36.7883C32.1257 36.7173 31.9697 36.6132 31.8383 36.4818C31.707 36.3505 31.6028 36.1945 31.5318 36.0228C31.4608 35.8511 31.4244 35.6671 31.4246 35.4814V28.4141C31.4246 27.621 32.0692 27 32.8387 27H39.906C40.6991 27 41.3201 27.6446 41.3201 28.4141V35.4814C41.3201 36.2745 40.7008 36.8955 39.906 36.8955" fill="url(#paint13_linear_3_2)"/>
<path d="M39.9094 36.8955H32.8387C32.653 36.8957 32.469 36.8593 32.2973 36.7883C32.1257 36.7173 31.9697 36.6132 31.8383 36.4818C31.707 36.3505 31.6028 36.1945 31.5318 36.0228C31.4608 35.8511 31.4244 35.6671 31.4246 35.4814V28.4141C31.4246 27.621 32.0692 27 32.8387 27H39.906C40.6991 27 41.3201 27.6446 41.3201 28.4141V35.4814C41.3201 36.2745 40.7008 36.8955 39.906 36.8955" fill="url(#paint14_linear_3_2)"/>
</g>
<path d="M39.9094 36.8955H32.8387C32.653 36.8957 32.469 36.8593 32.2973 36.7883C32.1257 36.7173 31.9697 36.6132 31.8383 36.4818C31.707 36.3505 31.6028 36.1945 31.5318 36.0228C31.4608 35.8511 31.4244 35.6671 31.4246 35.4814V28.4141C31.4246 27.621 32.0692 27 32.8387 27H39.906C40.6991 27 41.3201 27.6446 41.3201 28.4141V35.4814C41.3201 36.2745 40.7008 36.8955 39.906 36.8955" fill="url(#paint15_linear_3_2)"/>
<path d="M39.9094 36.8955H32.8387C32.653 36.8957 32.469 36.8593 32.2973 36.7883C32.1257 36.7173 31.9697 36.6132 31.8383 36.4818C31.707 36.3505 31.6028 36.1945 31.5318 36.0228C31.4608 35.8511 31.4244 35.6671 31.4246 35.4814V28.4141C31.4246 27.621 32.0692 27 32.8387 27H39.906C40.6991 27 41.3201 27.6446 41.3201 28.4141V35.4814C41.3201 36.2745 40.7008 36.8955 39.906 36.8955" fill="url(#paint16_linear_3_2)"/>
<g filter="url(#filter2_ii_3_2)">
<path d="M27.4337 47.0779H14.3674V29.4705C14.3674 28.1289 15.3681 27.027 16.5881 27.027H25.2112C26.4313 27.027 27.4337 28.1289 27.4337 29.4705V47.0779Z" fill="url(#paint17_linear_3_2)"/>
</g>
<g filter="url(#filter3_f_3_2)">
<path d="M24.1599 37.5857C24.4094 37.5857 24.6487 37.4866 24.8252 37.3101C25.0016 37.1337 25.1007 36.8944 25.1007 36.6449C25.1007 36.3954 25.0016 36.1561 24.8252 35.9797C24.6487 35.8032 24.4094 35.7041 24.1599 35.7041C23.9104 35.7041 23.6711 35.8032 23.4947 35.9797C23.3183 36.1561 23.2192 36.3954 23.2192 36.6449C23.2192 36.8944 23.3183 37.1337 23.4947 37.3101C23.6711 37.4866 23.9104 37.5857 24.1599 37.5857Z" fill="#62393D"/>
</g>
<g filter="url(#filter4_ii_3_2)">
<path d="M24.4046 37.4439C24.6566 37.4439 24.8982 37.3438 25.0764 37.1657C25.2546 36.9875 25.3547 36.7458 25.3547 36.4939C25.3547 36.2419 25.2546 36.0002 25.0764 35.8221C24.8982 35.6439 24.6566 35.5438 24.4046 35.5438C24.1526 35.5438 23.911 35.6439 23.7328 35.8221C23.5547 36.0002 23.4546 36.2419 23.4546 36.4939C23.4546 36.7458 23.5547 36.9875 23.7328 37.1657C23.911 37.3438 24.1526 37.4439 24.4046 37.4439Z" fill="#895D56"/>
</g>
<path d="M50.1827 26.7418L28.6839 5.56032C28.2999 5.1776 27.7799 4.96269 27.2377 4.96269C26.6956 4.96269 26.1755 5.1776 25.7915 5.56032C25.7915 5.56032 25.7679 5.56032 25.7679 5.58394L4.22361 26.7874C4.03405 26.9728 3.88344 27.1942 3.78062 27.4387C3.6778 27.6831 3.62483 27.9456 3.62483 28.2108C3.62483 28.476 3.6778 28.7385 3.78062 28.9829C3.88344 29.2273 4.03405 29.4488 4.22361 29.6342C4.61016 30.0121 5.12924 30.2236 5.66979 30.2236C6.21035 30.2236 6.72943 30.0121 7.11598 29.6342L26.9289 10.1081C27.0079 10.0303 27.1142 9.9867 27.2251 9.9867C27.3359 9.9867 27.4423 10.0303 27.5212 10.1081L47.2684 29.565C47.6523 29.9477 48.1724 30.1626 48.7145 30.1626C49.2567 30.1626 49.7767 29.9477 50.1607 29.565C50.9572 28.7668 50.9809 27.513 50.1827 26.7401" fill="url(#paint18_linear_3_2)"/>
<path d="M50.1827 26.7418L28.6839 5.56032C28.2999 5.1776 27.7799 4.96269 27.2377 4.96269C26.6956 4.96269 26.1755 5.1776 25.7915 5.56032C25.7915 5.56032 25.7679 5.56032 25.7679 5.58394L4.22361 26.7874C4.03405 26.9728 3.88344 27.1942 3.78062 27.4387C3.6778 27.6831 3.62483 27.9456 3.62483 28.2108C3.62483 28.476 3.6778 28.7385 3.78062 28.9829C3.88344 29.2273 4.03405 29.4488 4.22361 29.6342C4.61016 30.0121 5.12924 30.2236 5.66979 30.2236C6.21035 30.2236 6.72943 30.0121 7.11598 29.6342L26.9289 10.1081C27.0079 10.0303 27.1142 9.9867 27.2251 9.9867C27.3359 9.9867 27.4423 10.0303 27.5212 10.1081L47.2684 29.565C47.6523 29.9477 48.1724 30.1626 48.7145 30.1626C49.2567 30.1626 49.7767 29.9477 50.1607 29.565C50.9572 28.7668 50.9809 27.513 50.1827 26.7401" fill="url(#paint19_radial_3_2)"/>
<g filter="url(#filter5_f_3_2)">
<path d="M12.4166 46.0316H27V47.9419H12.4166V46.0316Z" fill="#68552B"/>
</g>
<g filter="url(#filter6_i_3_2)">
<path d="M3.62475 50.5103C3.62475 48.6253 5.15362 47.0981 7.03687 47.0981H47.358C49.2412 47.0981 50.7701 48.6253 50.7701 50.5103H3.62475Z" fill="url(#paint20_linear_3_2)"/>
</g>
<path d="M3.62475 50.5103C3.62475 48.6253 5.15362 47.0981 7.03687 47.0981H47.358C49.2412 47.0981 50.7701 48.6253 50.7701 50.5103H3.62475Z" fill="url(#paint21_linear_3_2)"/>
<path d="M3.62475 50.5103C3.62475 48.6253 5.15362 47.0981 7.03687 47.0981H47.358C49.2412 47.0981 50.7701 48.6253 50.7701 50.5103H3.62475Z" fill="url(#paint22_radial_3_2)"/>
<path d="M12.7626 46.8754C12.7626 46.5397 12.8959 46.2178 13.1333 45.9804C13.3706 45.7431 13.6925 45.6098 14.0282 45.6098H27.5501C28.3719 45.6098 29.0385 46.2763 29.0385 47.0981H12.7626V46.8754Z" fill="url(#paint23_linear_3_2)"/>
<path d="M12.7626 46.8754C12.7626 46.5397 12.8959 46.2178 13.1333 45.9804C13.3706 45.7431 13.6925 45.6098 14.0282 45.6098H27.5501C28.3719 45.6098 29.0385 46.2763 29.0385 47.0981H12.7626V46.8754Z" fill="url(#paint24_linear_3_2)"/>
<path d="M12.7626 46.8754C12.7626 46.5397 12.8959 46.2178 13.1333 45.9804C13.3706 45.7431 13.6925 45.6098 14.0282 45.6098H27.5501C28.3719 45.6098 29.0385 46.2763 29.0385 47.0981H12.7626V46.8754Z" fill="url(#paint25_linear_3_2)"/>
<g filter="url(#filter7_f_3_2)">
<path d="M27.5721 6.57619L49.1316 27.8049" stroke="url(#paint26_linear_3_2)" stroke-width="0.15" stroke-linecap="round"/>
</g>
<g filter="url(#filter8_f_3_2)">
<path d="M27.5721 6.57619L6.01087 27.8049" stroke="url(#paint27_linear_3_2)" stroke-opacity="0.5" stroke-width="0.15" stroke-linecap="round"/>
</g>
<defs>
<filter id="filter0_f_3_2" x="13.4576" y="27.803" width="12.2163" height="21.6545" filterUnits="userSpaceOnUse" color-interpolation-filters="sRGB">
<feFlood flood-opacity="0" result="BackgroundImageFix"/>
<feBlend mode="normal" in="SourceGraphic" in2="BackgroundImageFix" result="shape"/>
<feGaussianBlur stdDeviation="0.125" result="effect1_foregroundBlur_3_2"/>
</filter>
<filter id="filter1_i_3_2" x="31.1746" y="27" width="10.1455" height="10.1455" filterUnits="userSpaceOnUse" color-interpolation-filters="sRGB">
<feFlood flood-opacity="0" result="BackgroundImageFix"/>
<feBlend mode="normal" in="SourceGraphic" in2="BackgroundImageFix" result="shape"/>
<feColorMatrix in="SourceAlpha" type="matrix" values="0 0 0 0 0 0 0 0 0 0 0 0 0 0 0 0 0 0 127 0" result="hardAlpha"/>
<feOffset dx="-0.25" dy="0.25"/>
<feGaussianBlur stdDeviation="0.125"/>
<feComposite in2="hardAlpha" operator="arithmetic" k2="-1" k3="1"/>
<feColorMatrix type="matrix" values="0 0 0 0 0.0470588 0 0 0 0 0.47451 0 0 0 0 0.792157 0 0 0 1 0"/>
<feBlend mode="normal" in2="shape" result="effect1_innerShadow_3_2"/>
</filter>
<filter id="filter2_ii_3_2" x="14.2674" y="27.027" width="13.2913" height="20.0509" filterUnits="userSpaceOnUse" color-interpolation-filters="sRGB">
<feFlood flood-opacity="0" result="BackgroundImageFix"/>
<feBlend mode="normal" in="SourceGraphic" in2="BackgroundImageFix" result="shape"/>
<feColorMatrix in="SourceAlpha" type="matrix" values="0 0 0 0 0 0 0 0 0 0 0 0 0 0 0 0 0 0 127 0" result="hardAlpha"/>
<feOffset dx="0.125"/>
<feGaussianBlur stdDeviation="0.125"/>
<feComposite in2="hardAlpha" operator="arithmetic" k2="-1" k3="1"/>
<feColorMatrix type="matrix" values="0 0 0 0 0.254902 0 0 0 0 0.188235 0 0 0 0 0.141176 0 0 0 1 0"/>
<feBlend mode="normal" in2="shape" result="effect1_innerShadow_3_2"/>
<feColorMatrix in="SourceAlpha" type="matrix" values="0 0 0 0 0 0 0 0 0 0 0 0 0 0 0 0 0 0 127 0" result="hardAlpha"/>
<feOffset dx="-0.1"/>
<feGaussianBlur stdDeviation="0.075"/>
<feComposite in2="hardAlpha" operator="arithmetic" k2="-1" k3="1"/>
<feColorMatrix type="matrix" values="0 0 0 0 0.694118 0 0 0 0 0.470588 0 0 0 0 0.407843 0 0 0 1 0"/>
<feBlend mode="normal" in2="effect1_innerShadow_3_2" result="effect2_innerShadow_3_2"/>
</filter>
<filter id="filter3_f_3_2" x="23.1442" y="35.6291" width="2.03156" height="2.03156" filterUnits="userSpaceOnUse" color-interpolation-filters="sRGB">
<feFlood flood-opacity="0" result="BackgroundImageFix"/>
<feBlend mode="normal" in="SourceGraphic" in2="BackgroundImageFix" result="shape"/>
<feGaussianBlur stdDeviation="0.0375" result="effect1_foregroundBlur_3_2"/>
</filter>
<filter id="filter4_ii_3_2" x="23.4046" y="35.5438" width="2.00012" height="1.90013" filterUnits="userSpaceOnUse" color-interpolation-filters="sRGB">
<feFlood flood-opacity="0" result="BackgroundImageFix"/>
<feBlend mode="normal" in="SourceGraphic" in2="BackgroundImageFix" result="shape"/>
<feColorMatrix in="SourceAlpha" type="matrix" values="0 0 0 0 0 0 0 0 0 0 0 0 0 0 0 0 0 0 127 0" result="hardAlpha"/>
<feOffset dx="-0.05"/>
<feGaussianBlur stdDeviation="0.05"/>
<feComposite in2="hardAlpha" operator="arithmetic" k2="-1" k3="1"/>
<feColorMatrix type="matrix" values="0 0 0 0 0.694118 0 0 0 0 0.482353 0 0 0 0 0.419608 0 0 0 1 0"/>
<feBlend mode="normal" in2="shape" result="effect1_innerShadow_3_2"/>
<feColorMatrix in="SourceAlpha" type="matrix" values="0 0 0 0 0 0 0 0 0 0 0 0 0 0 0 0 0 0 127 0" result="hardAlpha"/>
<feOffset dx="0.05"/>
<feGaussianBlur stdDeviation="0.05"/>
<feComposite in2="hardAlpha" operator="arithmetic" k2="-1" k3="1"/>
<feColorMatrix type="matrix" values="0 0 0 0 0.290196 0 0 0 0 0.184314 0 0 0 0 0.164706 0 0 0 1 0"/>
<feBlend mode="normal" in2="effect1_innerShadow_3_2" result="effect2_innerShadow_3_2"/>
</filter>
<filter id="filter5_f_3_2" x="12.1666" y="45.7816" width="15.0834" height="2.41025" filterUnits="userSpaceOnUse" color-interpolation-filters="sRGB">
<feFlood flood-opacity="0" result="BackgroundImageFix"/>
<feBlend mode="normal" in="SourceGraphic" in2="BackgroundImageFix" result="shape"/>
<feGaussianBlur stdDeviation="0.125" result="effect1_foregroundBlur_3_2"/>
</filter>
<filter id="filter6_i_3_2" x="3.62475" y="47.0981" width="47.3954" height="3.41212" filterUnits="userSpaceOnUse" color-interpolation-filters="sRGB">
<feFlood flood-opacity="0" result="BackgroundImageFix"/>
<feBlend mode="normal" in="SourceGraphic" in2="BackgroundImageFix" result="shape"/>
<feColorMatrix in="SourceAlpha" type="matrix" values="0 0 0 0 0 0 0 0 0 0 0 0 0 0 0 0 0 0 127 0" result="hardAlpha"/>
<feOffset dx="0.25"/>
<feGaussianBlur stdDeviation="0.25"/>
<feComposite in2="hardAlpha" operator="arithmetic" k2="-1" k3="1"/>
<feColorMatrix type="matrix" values="0 0 0 0 0.25098 0 0 0 0 0.545098 0 0 0 0 0.352941 0 0 0 1 0"/>
<feBlend mode="normal" in2="shape" result="effect1_innerShadow_3_2"/>
</filter>
<filter id="filter7_f_3_2" x="27.1971" y="6.20119" width="22.3095" height="21.9787" filterUnits="userSpaceOnUse" color-interpolation-filters="sRGB">
<feFlood flood-opacity="0" result="BackgroundImageFix"/>
<feBlend mode="normal" in="SourceGraphic" in2="BackgroundImageFix" result="shape"/>
<feGaussianBlur stdDeviation="0.15" result="effect1_foregroundBlur_3_2"/>
</filter>
<filter id="filter8_f_3_2" x="5.63587" y="6.20119" width="22.3112" height="21.9787" filterUnits="userSpaceOnUse" color-interpolation-filters="sRGB">
<feFlood flood-opacity="0" result="BackgroundImageFix"/>
<feBlend mode="normal" in="SourceGraphic" in2="BackgroundImageFix" result="shape"/>
<feGaussianBlur stdDeviation="0.15" result="effect1_foregroundBlur_3_2"/>
</filter>
<radialGradient id="paint0_radial_3_2" cx="0" cy="0" r="1" gradientUnits="userSpaceOnUse" gradientTransform="translate(16.1882 7.88737) rotate(90) scale(7.98191 4.35679)">
<stop stop-color="#F1B379"/>
<stop offset="1" stop-color="#CD915F"/>
</radialGradient>
<linearGradient id="paint1_linear_3_2" x1="9.80775" y1="13.8257" x2="12.6664" y2="13.8257" gradientUnits="userSpaceOnUse">
<stop stop-color="#8E694B"/>
<stop offset="1" stop-color="#8E694B" stop-opacity="0"/>
</linearGradient>
<linearGradient id="paint2_linear_3_2" x1="16.2422" y1="17.8251" x2="14.1193" y2="13.3009" gradientUnits="userSpaceOnUse">
<stop stop-color="#9F6A42"/>
<stop offset="1" stop-color="#9F6A42" stop-opacity="0"/>
</linearGradient>
<linearGradient id="paint3_linear_3_2" x1="13.6957" y1="6.78375" x2="13.6957" y2="7.07737" gradientUnits="userSpaceOnUse">
<stop stop-color="#D5AD80"/>
<stop offset="1" stop-color="#D5AD80" stop-opacity="0"/>
</linearGradient>
<radialGradient id="paint4_radial_3_2" cx="0" cy="0" r="1" gradientUnits="userSpaceOnUse" gradientTransform="translate(17.9128 7.20562) rotate(180) scale(4.73349 0.925476)">
<stop stop-color="#FFCB8C"/>
<stop offset="1" stop-color="#FFCB8C" stop-opacity="0"/>
</radialGradient>
<linearGradient id="paint5_linear_3_2" x1="9.24413" y1="35.0612" x2="45.5979" y2="35.0612" gradientUnits="userSpaceOnUse">
<stop stop-color="#D7905F"/>
<stop offset="1" stop-color="#E8BC97"/>
</linearGradient>
<linearGradient id="paint6_linear_3_2" x1="10.2651" y1="50.1542" x2="23.2723" y2="30.1303" gradientUnits="userSpaceOnUse">
<stop stop-color="#BA8951"/>
<stop offset="1" stop-color="#BA8951" stop-opacity="0"/>
</linearGradient>
<radialGradient id="paint7_radial_3_2" cx="0" cy="0" r="1" gradientUnits="userSpaceOnUse" gradientTransform="translate(34.7017 47.8912) rotate(-118.804) scale(6.47655 8.12854)">
<stop stop-color="#BEAB75"/>
<stop offset="1" stop-color="#BEAB75" stop-opacity="0"/>
</radialGradient>
<linearGradient id="paint8_linear_3_2" x1="46.6695" y1="40.6282" x2="45.4224" y2="40.6282" gradientUnits="userSpaceOnUse">
<stop stop-color="#FFE6B1"/>
<stop offset="1" stop-color="#FFE6B1" stop-opacity="0"/>
</linearGradient>
<radialGradient id="paint9_radial_3_2" cx="0" cy="0" r="1" gradientUnits="userSpaceOnUse" gradientTransform="translate(47.1285 25.1707) rotate(90) scale(7.96009 1.79882)">
<stop offset="0.35" stop-color="#9E413E"/>
<stop offset="1" stop-color="#9E413E" stop-opacity="0"/>
</radialGradient>
<linearGradient id="paint10_linear_3_2" x1="34.1314" y1="15.1959" x2="32.1924" y2="17.1787" gradientUnits="userSpaceOnUse">
<stop stop-color="#B55852"/>
<stop offset="1" stop-color="#B55852" stop-opacity="0"/>
</linearGradient>
<linearGradient id="paint11_linear_3_2" x1="7.59206" y1="44.5247" x2="8.91844" y2="44.5247" gradientUnits="userSpaceOnUse">
<stop stop-color="#845F3D"/>
<stop offset="1" stop-color="#845F3D" stop-opacity="0"/>
</linearGradient>
<linearGradient id="paint12_linear_3_2" x1="19.5666" y1="28.0547" x2="19.5666" y2="49.2058" gradientUnits="userSpaceOnUse">
<stop stop-color="#805139"/>
<stop offset="1" stop-color="#6D4D2F"/>
</linearGradient>
<linearGradient id="paint13_linear_3_2" x1="31.4263" y1="37.6448" x2="42.1048" y2="27" gradientUnits="userSpaceOnUse">
<stop stop-color="#4CCCFF"/>
<stop offset="1" stop-color="#3A9EE6"/>
</linearGradient>
<linearGradient id="paint14_linear_3_2" x1="36.3741" y1="37.5165" x2="36.3741" y2="35.5691" gradientUnits="userSpaceOnUse">
<stop stop-color="#1E9FE4"/>
<stop offset="1" stop-color="#1E9FE4" stop-opacity="0"/>
</linearGradient>
<linearGradient id="paint15_linear_3_2" x1="31.4263" y1="34.3811" x2="33.4142" y2="34.3811" gradientUnits="userSpaceOnUse">
<stop stop-color="#48E0FF"/>
<stop offset="1" stop-color="#48E0FF" stop-opacity="0"/>
</linearGradient>
<linearGradient id="paint16_linear_3_2" x1="32.9231" y1="25.2686" x2="34.2546" y2="29.2629" gradientUnits="userSpaceOnUse">
<stop stop-color="#43B3F2"/>
<stop offset="1" stop-color="#43B3F2" stop-opacity="0"/>
</linearGradient>
<linearGradient id="paint17_linear_3_2" x1="14.3674" y1="39.6023" x2="27.4337" y2="39.5263" gradientUnits="userSpaceOnUse">
<stop stop-color="#70504D"/>
<stop offset="1" stop-color="#9B665E"/>
</linearGradient>
<linearGradient id="paint18_linear_3_2" x1="27.1972" y1="4.96294" x2="27.1972" y2="30.2231" gradientUnits="userSpaceOnUse">
<stop stop-color="#EA6D2E"/>
<stop offset="1" stop-color="#CA222B"/>
</linearGradient>
<radialGradient id="paint19_radial_3_2" cx="0" cy="0" r="1" gradientUnits="userSpaceOnUse" gradientTransform="translate(28.615 3.25577) rotate(97.326) scale(6.08393 11.3546)">
<stop stop-color="#FF853F"/>
<stop offset="1" stop-color="#FF853F" stop-opacity="0"/>
</radialGradient>
<linearGradient id="paint20_linear_3_2" x1="49.4657" y1="50.5103" x2="2.42662" y2="50.5103" gradientUnits="userSpaceOnUse">
<stop stop-color="#3FD47B"/>
<stop offset="1" stop-color="#40DC7F"/>
</linearGradient>
<linearGradient id="paint21_linear_3_2" x1="27.1974" y1="51.4148" x2="27.1974" y2="48.8042" gradientUnits="userSpaceOnUse">
<stop offset="0.107" stop-color="#3FD17B"/>
<stop offset="1" stop-color="#3FD17B" stop-opacity="0"/>
</linearGradient>
<radialGradient id="paint22_radial_3_2" cx="0" cy="0" r="1" gradientUnits="userSpaceOnUse" gradientTransform="translate(50.7701 46.6071) rotate(147.147) scale(5.65613 9.27466)">
<stop stop-color="#5CEE92"/>
<stop offset="1" stop-color="#5CEE92" stop-opacity="0"/>
</radialGradient>
<linearGradient id="paint23_linear_3_2" x1="13.2013" y1="47.0981" x2="28.4445" y2="47.0981" gradientUnits="userSpaceOnUse">
<stop stop-color="#9FA1A3"/>
<stop offset="1" stop-color="#C4C1C7"/>
</linearGradient>
<linearGradient id="paint24_linear_3_2" x1="12.4892" y1="47.0981" x2="14.4298" y2="47.0981" gradientUnits="userSpaceOnUse">
<stop stop-color="#59675C"/>
<stop offset="1" stop-color="#59675C" stop-opacity="0"/>
</linearGradient>
<linearGradient id="paint25_linear_3_2" x1="29.0385" y1="46.3539" x2="26.487" y2="47.9402" gradientUnits="userSpaceOnUse">
<stop stop-color="#E3DADD"/>
<stop offset="1" stop-color="#E3DADD" stop-opacity="0"/>
</linearGradient>
<linearGradient id="paint26_linear_3_2" x1="26.9089" y1="6.24712" x2="50.0344" y2="30.0544" gradientUnits="userSpaceOnUse">
<stop stop-color="#FF8337"/>
<stop offset="1" stop-color="#F24747"/>
</linearGradient>
<linearGradient id="paint27_linear_3_2" x1="28.2336" y1="6.24712" x2="5.10806" y2="30.0544" gradientUnits="userSpaceOnUse">
<stop stop-color="#FF8337"/>
<stop offset="1" stop-color="#F24747"/>
</linearGradient>
</defs>
</svg>
