<svg width="139" height="139" viewBox="0 0 139 139" fill="none" xmlns="http://www.w3.org/2000/svg">
<path d="M82.5892 66.8178C84.0459 66.6667 85.498 66.4748 86.9438 66.2422V56.0322C84.7198 57.0943 82.4003 57.7502 80.0937 58.2584C74.2449 59.4812 68.2961 59.6245 62.4017 59.0077C59.4305 58.632 56.5702 58.1411 53.6077 57.0878C53.0213 56.8677 52.4385 56.6186 51.8594 56.3406V65.519C62.0281 67.1848 72.3684 67.8907 82.5892 66.8178Z" fill="#1D4ED8"/>
<path d="M122.274 91.1905V53.9515C122.274 49.6339 119.308 45.6137 114.232 42.2082V25.8996C114.232 24.3033 112.966 22.9828 111.317 22.733C112.527 22.2205 113.383 21.1628 113.383 19.89C113.383 18.1243 109.795 12.4253 109.795 12.4253C109.795 12.4253 106.203 18.1221 106.203 19.89C106.203 21.1454 107.039 22.1944 108.225 22.7156C106.483 22.8894 105.117 24.2425 105.117 25.8996V37.5952C101.937 36.3811 98.6787 35.3819 95.3649 34.6045C95.5359 34.1941 95.6266 33.7546 95.632 33.31C95.632 31.1751 91.2883 24.2881 91.2883 24.2881C91.2883 24.2881 87.3137 30.5952 86.9793 33.006C82.7245 32.3783 78.1962 32.0134 73.5245 31.8657V16.2174C73.5245 14.7818 72.4125 13.5829 70.9443 13.3201C71.9455 12.8532 72.6449 11.9497 72.6449 10.8746C72.6427 9.3282 69.5 4.34375 69.5 4.34375C69.5 4.34375 66.3573 9.3282 66.3573 10.8746C66.3573 11.9366 67.0393 12.8314 68.021 13.3027C66.4724 13.5025 65.2714 14.7253 65.2714 16.2174V31.8679C60.7039 32.02 56.2755 32.3805 52.1098 32.993C51.7015 30.5279 47.8073 24.3511 47.8073 24.3511C47.8073 24.3511 43.4636 31.2359 43.4636 33.373C43.4636 33.8009 43.5613 34.2049 43.7046 34.5893C40.2828 35.39 36.9207 36.427 33.6423 37.6929V25.9322C33.6423 24.338 32.374 23.0175 30.7233 22.7678C31.9331 22.2552 32.7931 21.1953 32.7931 19.9226C32.7931 18.1569 29.2009 12.4579 29.2009 12.4579C29.2009 12.4579 25.6086 18.1547 25.6086 19.9226C25.6086 21.178 26.4469 22.227 27.6328 22.7482C25.8887 22.9241 24.5226 24.2772 24.5226 25.9322V42.382C19.599 45.7527 16.7213 49.7099 16.7213 53.9537V91.197C8.94161 95.7058 4.34375 101.253 4.34375 107.254C4.34375 122.389 33.5164 134.656 69.5 134.656C105.484 134.656 134.656 122.389 134.656 107.254C134.656 101.251 130.056 95.7037 122.274 91.1905ZM107.996 21.595C107.996 20.711 109.795 17.8615 109.795 17.8615C109.795 17.8615 111.593 20.711 111.593 21.595C111.589 21.8084 111.538 22.0183 111.445 22.2103C111.351 22.4022 111.217 22.5717 111.052 22.707C110.952 22.6983 110.855 22.6787 110.753 22.6787H108.598L108.518 22.6852C108.358 22.5515 108.229 22.3849 108.139 22.1968C108.049 22.0087 108 21.8034 107.996 21.595ZM107.286 25.8996C107.286 25.3306 107.886 24.8528 108.598 24.8528H110.753C111.461 24.8528 112.06 25.3328 112.06 25.8996V49.3493C112.057 49.5794 111.967 49.7997 111.808 49.9662L111.009 50.3745C110.925 50.3874 110.84 50.3954 110.755 50.3984H108.6C107.89 50.3984 107.288 49.9162 107.288 49.3493L107.286 25.8996ZM91.2861 30.8602C91.2861 30.8602 93.4623 34.3026 93.4623 35.3712C93.4623 36.4375 92.4871 37.3041 91.2861 37.3041C90.085 37.3041 89.1142 36.4397 89.1142 35.3712C89.1142 34.3026 91.2861 30.8602 91.2861 30.8602ZM67.9297 12.3645C67.9297 11.5935 69.5 9.10233 69.5 9.10233C69.5 9.10233 71.0746 11.5913 71.0746 12.3645C71.0694 12.5399 71.0288 12.7125 70.9553 12.8718C70.8818 13.0312 70.7768 13.1741 70.6467 13.2919C70.5425 13.281 70.4426 13.2615 70.3362 13.2615H68.4532L68.3402 13.2723C68.2137 13.1569 68.112 13.0168 68.0414 12.8607C67.9708 12.7046 67.9328 12.5358 67.9297 12.3645ZM67.4432 16.2174C67.4432 15.7939 67.9058 15.4355 68.4532 15.4355H70.3362C70.8857 15.4355 71.3504 15.7939 71.3504 16.2174V36.7373C71.3468 36.8942 71.2867 37.0446 71.181 37.1608L70.5186 37.5018L70.3362 37.5148H68.4532C67.9058 37.5148 67.4432 37.1586 67.4432 36.7373V16.2174ZM47.8073 30.9188C47.8073 30.9188 49.9792 34.3634 49.9792 35.432C49.9792 36.4962 49.0084 37.3649 47.8073 37.3649C46.6063 37.3649 45.6354 36.4984 45.6354 35.432C45.6354 34.3634 47.8073 30.9188 47.8073 30.9188ZM27.4069 21.6232C27.4069 20.7436 29.2009 17.8941 29.2009 17.8941C29.2009 17.8941 30.9992 20.7436 30.9992 21.6232C30.9951 21.8375 30.9444 22.0484 30.8507 22.2412C30.7569 22.434 30.6223 22.604 30.4562 22.7395C30.3563 22.7308 30.2607 22.7113 30.1587 22.7113H28.0042L27.9281 22.7178C27.7688 22.5826 27.6399 22.4151 27.55 22.2265C27.4602 22.0378 27.4114 21.8321 27.4069 21.6232ZM26.6945 25.9278C26.6945 25.361 27.294 24.8832 28.0063 24.8832H30.1608C30.871 24.8832 31.4726 25.3632 31.4726 25.9278V49.3798C31.4678 49.6086 31.3771 49.8272 31.2185 49.9922L30.4193 50.4027C30.3344 50.4157 30.2488 50.4237 30.163 50.4266H28.0085C27.2983 50.4266 26.6967 49.9466 26.6967 49.3798L26.6945 25.9278ZM24.2968 51.215C24.3684 50.8458 24.5118 50.5091 24.6399 50.166C24.7833 50.6916 25.0656 51.1629 25.45 51.5516C25.2806 52.7918 25.5847 54.0493 26.2471 55.1374C27.6567 57.4027 30.0696 58.9881 32.5282 60.2478C35.9706 61.9614 39.6758 63.0539 43.4636 63.9139V41.8064C43.4636 41.2309 43.7394 40.727 44.1434 40.3122C43.5179 40.4338 42.888 40.525 42.2669 40.664C39.3457 41.3286 36.3746 42.2082 33.6423 43.4788V42.3298L33.7379 42.2842C36.405 41.0919 39.1871 40.2166 42.0084 39.5477C47.6617 38.2392 53.4279 37.4785 59.227 37.2759C61.2577 37.1999 63.2928 37.2107 65.33 37.2607C65.5407 38.3293 66.3703 39.185 67.4584 39.5216C64.7319 39.2412 61.9939 39.0868 59.2531 39.059C56.0338 39.0433 52.8159 39.1941 49.6121 39.5107C50.8914 39.7583 51.86 40.6662 51.86 41.8064V45.7853L51.9751 45.7288C53.465 45.0816 54.9398 44.708 56.4297 44.4257C59.403 43.8784 62.3806 43.7589 65.3452 43.9283C68.325 44.1347 71.2353 44.5473 74.1456 45.7875C74.8624 46.1133 75.5769 46.5107 76.2393 47.1101C76.867 47.6596 77.6033 48.726 77.3079 49.9466C76.993 51.0847 76.2089 51.6624 75.54 52.1055C74.8618 52.5222 74.1295 52.8437 73.3638 53.0611C70.4165 53.9146 67.4345 53.9059 64.5177 53.5345C63.056 53.3022 61.6313 53.0328 60.2413 52.3617C59.5962 52.0099 58.8317 51.582 58.6059 50.6742C58.4821 49.673 59.3443 49.1517 59.9438 48.8346L60.1001 49.1191C59.5268 49.4666 58.9577 50.0357 59.1228 50.5613C59.2878 51.0868 59.9372 51.4517 60.541 51.7058C61.7855 52.2032 63.245 52.3835 64.6241 52.4877C67.415 52.6376 70.2971 52.3726 72.8425 51.4973C73.9849 51.1303 75.4053 50.192 75.4618 49.5426C75.6399 49.0779 74.5105 48.1526 73.3116 47.7465C70.8683 46.8473 67.9732 46.5737 65.2344 46.4716C62.4631 46.4086 59.6614 46.6215 56.9943 47.21C55.6717 47.5054 54.3599 47.9007 53.2283 48.4415C52.7482 48.6705 52.2902 48.9432 51.86 49.256V52.5507C52.668 53.111 53.6822 53.5758 54.7334 53.945C57.2028 54.7899 60.0523 55.2634 62.7802 55.5544C68.3076 56.1386 73.9849 55.9518 79.4146 54.9332C82.0838 54.4076 84.727 53.6583 86.9445 52.39V44.5669C86.0714 44.0456 85.1484 43.5678 84.1732 43.1595C81.6603 42.1061 78.9346 41.409 76.1611 40.8247C73.7445 40.3508 71.3101 39.9726 68.8636 39.691H70.3405C70.6127 39.691 70.8806 39.6584 71.1441 39.5933L72.3256 39.0199L72.5515 38.8657C72.8838 38.566 73.1335 38.212 73.2986 37.8254C74.415 37.9622 75.5291 38.0969 76.6411 38.288C79.5058 38.7897 82.4009 39.4195 85.2374 40.4924C85.8513 40.7256 86.4602 40.9869 87.064 41.2765C87.3376 40.1884 88.4496 39.35 89.844 39.35H92.448C94.0465 39.35 95.3453 40.4273 95.3453 41.7521V64.3527C102.048 62.3697 108.394 59.2401 113.737 54.5336L113.963 54.766C110.058 59.0337 105.093 62.3545 99.7499 64.6871C98.3056 65.3105 96.8352 65.8686 95.3475 66.379V68.1969C95.3475 68.8571 95.026 69.4587 94.5026 69.8909L93.1995 70.5164C92.9526 70.5703 92.7008 70.5987 92.448 70.6011H89.844C88.4257 70.6011 87.2985 69.7389 87.0488 68.6182C85.6732 68.8948 84.2919 69.1293 82.9048 69.3219C72.5602 70.7401 62.044 70.245 51.834 68.3663C51.8141 68.6717 51.7318 68.9698 51.592 69.2422C51.4523 69.5145 51.2582 69.7553 51.0217 69.9496L49.7186 70.5729C49.4818 70.625 49.2255 70.6598 48.9671 70.6598H46.363C44.7602 70.6598 43.4657 69.5825 43.4657 68.2555V66.4724C39.4043 65.3626 35.3885 63.953 31.6681 61.8441C29.1379 60.3564 26.6055 58.5451 25.083 55.7976C24.3402 54.4337 23.9732 52.7787 24.2968 51.215ZM117.931 102.81C117.931 111.239 97.2196 120.665 69.5 120.665C41.7804 120.665 21.065 111.239 21.065 102.81V94.179C23.2021 94.0639 24.9092 92.5154 24.9092 90.6063V82.2337C24.9092 79.597 27.3396 77.4599 30.3389 77.4599C33.3383 77.4599 35.773 79.597 35.773 82.2337V92.5631C35.773 95.6298 38.6029 98.1188 42.0888 98.1188C45.579 98.1188 48.4089 95.6298 48.4089 92.5631V82.01C48.4089 79.2495 50.9544 77.0147 54.0927 77.0147C57.2354 77.0147 59.7809 79.2495 59.7809 82.01V88.7385C59.7809 90.274 61.1926 91.5163 62.9409 91.5163C64.685 91.5163 66.0967 90.274 66.0967 88.7385V83.4C66.0967 81.4062 67.9384 79.7903 70.208 79.7903C72.4733 79.7903 74.3107 81.4062 74.3107 83.4V92.5653C74.3107 95.632 77.145 98.121 80.6309 98.121C84.1211 98.121 86.951 95.632 86.951 92.5653V82.2923C86.951 79.6861 89.3553 77.5707 92.3221 77.5707C95.2888 77.5707 97.6931 79.6861 97.6931 82.2923V89.7897C97.6931 91.323 99.1048 92.5653 100.853 92.5653C102.597 92.5653 104.013 91.323 104.013 89.7897V84.5402C104.013 83.1741 105.269 82.0665 106.821 82.0665C108.379 82.0665 109.638 83.1741 109.638 84.5402V92.5653C109.638 95.632 112.464 98.121 115.954 98.121C116.649 98.121 117.305 97.9972 117.931 97.8147V102.81Z" fill="#1D4ED8"/>
</svg>
